#!OML:ASF X:\für Bonn\!DataBase\2005_08_11_Bastian_Final\c3d\Bastian.ASF
:FULLY-SPECIFIED
:DEGREES
48
root -2.23243 17.028 2.45484 142.048 -12.5901 -167.239
lowerback 40.0139 -5.56308 4.36033
upperback 12.5806 -10.6824 5.99177
thorax -4.42038 -7.79254 8.23098
lowerneck -8.07691 -3.91394 -7.28615
upperneck -4.53366 -4.2192 7.50054
head 0.315675 -1.80681 3.60538
rclavicle -6.61953e-014 3.18055e-015
rhumerus -54.2972 33.7246 -105.945
rradius 39.4362
rwrist -37.2584
rhand -35.1687 1.73761
rfingers 7.12502
rthumb -8.30757 -28.079
lclavicle -6.61953e-014 3.18055e-015
lhumerus 39.8709 -22.077 77.692
lradius 99.3756
lwrist -12.1009
lhand -59.5541 -6.79152
lfingers 7.12502
lthumb -31.7272 20.4688
rfemur -86.4398 -6.9191 34.2988
rtibia 133.148
rfoot 8.80272 1.50423
rtoes -4.91941
lfemur 25.6748 -7.30564 -12.2276
ltibia 28.886
lfoot -12.1185 -5.10502
ltoes -5.19479
49
root -2.24433 17.0238 2.45677 141.717 -12.5841 -167.081
lowerback 40.5558 -5.61344 4.42514
upperback 12.5962 -10.7869 6.08975
thorax -4.53928 -7.89259 8.40463
lowerneck -8.15434 -3.88136 -7.22218
upperneck -4.63562 -4.16353 7.41512
head 0.287491 -1.77526 3.56493
rclavicle 8.09054e-014 -1.00187e-013
rhumerus -54.1395 33.9005 -105.818
rradius 39.5415
rwrist -37.4455
rhand -35.1538 1.87789
rfingers 7.12502
rthumb -8.29324 -27.9393
lclavicle 8.09054e-014 -1.00187e-013
lhumerus 40.2892 -22.2448 77.4903
lradius 99.8876
lwrist -11.9958
lhand -59.752 -6.67557
lfingers 7.12502
lthumb -31.9157 20.5472
rfemur -88.3424 -6.81355 34.6035
rtibia 133.65
rfoot 8.66073 1.78595
rtoes -5.40039
lfemur 26.0109 -7.38555 -12.1555
ltibia 28.8075
lfoot -12.0789 -5.11047
ltoes -5.27384
50
root -2.25686 17.0235 2.46198 141.379 -12.5094 -166.956
lowerback 41.0835 -5.61692 4.51387
upperback 12.642 -10.8369 6.18503
thorax -4.62517 -7.97175 8.53816
lowerneck -8.23121 -3.85857 -7.15649
upperneck -4.76668 -4.11765 7.3415
head 0.250977 -1.74744 3.52813
rclavicle -3.91606e-014 2.70347e-014
rhumerus -53.9017 34.0693 -105.644
rradius 39.6374
rwrist -37.6524
rhand -35.1508 2.00323
rfingers 7.12502
rthumb -8.29035 -27.8141
lclavicle -3.91606e-014 2.70347e-014
lhumerus 40.7451 -22.4442 77.2824
lradius 100.351
lwrist -11.9465
lhand -59.9163 -6.38616
lfingers 7.12502
lthumb -32.0721 20.8053
rfemur -90.0037 -6.63552 34.8985
rtibia 134.036
rfoot 8.4496 2.00095
rtoes -5.98117
lfemur 26.4185 -7.40721 -12.0772
ltibia 28.638
lfoot -11.9889 -5.09515
ltoes -5.10207
51
root -2.26908 17.0304 2.46835 141.097 -12.4233 -166.84
lowerback 41.5779 -5.62488 4.59948
upperback 12.6559 -10.8751 6.27888
thorax -4.73587 -8.03628 8.66852
lowerneck -8.25281 -3.83563 -7.08783
upperneck -4.92841 -4.07488 7.24681
head 0.194545 -1.72249 3.48429
rclavicle -6.04305e-014 4.69132e-014
rhumerus -53.7105 34.2812 -105.527
rradius 39.6805
rwrist -37.8654
rhand -35.1432 2.23684
rfingers 7.12502
rthumb -8.28293 -27.5808
lclavicle -6.04305e-014 4.69132e-014
lhumerus 41.1272 -22.6097 77.1331
lradius 100.76
lwrist -11.8952
lhand -60.0322 -6.18364
lfingers 7.12502
lthumb -32.1825 20.9855
rfemur -91.5508 -6.50302 35.2012
rtibia 134.33
rfoot 8.05415 2.1482
rtoes -6.34226
lfemur 26.8143 -7.43305 -12.0049
ltibia 28.3662
lfoot -11.8387 -5.06538
ltoes -5.01193
52
root -2.2811 17.0387 2.47531 140.809 -12.3088 -166.718
lowerback 42.0721 -5.6284 4.70366
upperback 12.6747 -10.9042 6.37109
thorax -4.84121 -8.09794 8.78399
lowerneck -8.34554 -3.80626 -7.01754
upperneck -5.01893 -4.02338 7.16385
head 0.173289 -1.69258 3.44323
rclavicle 1.05952e-013 -1.09729e-013
rhumerus -53.4807 34.525 -105.405
rradius 39.6928
rwrist -38.0597
rhand -35.1217 2.47496
rfingers 7.12502
rthumb -8.26222 -27.3435
lclavicle 1.05952e-013 -1.09729e-013
lhumerus 41.5119 -22.7381 76.9689
lradius 101.103
lwrist -11.8449
lhand -60.1349 -5.95932
lfingers 7.12502
lthumb -32.2803 21.19
rfemur -92.9308 -6.44758 35.5433
rtibia 134.543
rfoot 7.47075 2.23253
rtoes -6.3587
lfemur 27.2542 -7.42761 -11.9018
ltibia 28.0032
lfoot -11.6518 -5.02521
ltoes -4.98004
53
root -2.29325 17.0477 2.48331 140.553 -12.1898 -166.617
lowerback 42.5433 -5.6117 4.79586
upperback 12.6877 -10.9093 6.48265
thorax -4.94258 -8.14835 8.91543
lowerneck -8.44187 -3.78747 -6.97979
upperneck -5.13608 -3.98044 7.07702
head 0.145469 -1.66549 3.40697
rclavicle 4.69132e-014 -1.11319e-013
rhumerus -53.2128 34.7634 -105.228
rradius 39.6944
rwrist -38.2031
rhand -35.1104 2.72997
rfingers 7.12502
rthumb -8.25133 -27.0889
lclavicle 4.69132e-014 -1.11319e-013
lhumerus 41.9135 -22.8406 76.8259
lradius 101.401
lwrist -11.7753
lhand -60.1864 -5.71257
lfingers 7.12502
lthumb -32.3293 21.4268
rfemur -94.2034 -6.44107 35.8838
rtibia 134.702
rfoot 6.86536 2.22788
rtoes -5.94241
lfemur 27.6744 -7.38565 -11.7924
ltibia 27.6119
lfoot -11.4291 -5.00407
ltoes -5.0929
54
root -2.30534 17.0572 2.49075 140.309 -12.0698 -166.54
lowerback 43.0112 -5.5821 4.86789
upperback 12.6843 -10.8968 6.6006
thorax -5.0589 -8.18735 9.05942
lowerneck -8.54541 -3.77692 -6.9342
upperneck -5.22808 -3.95221 6.94546
head 0.126696 -1.64683 3.3529
rclavicle -1.13307e-014 -3.49861e-014
rhumerus -52.9427 34.9901 -105.005
rradius 39.6832
rwrist -38.2989
rhand -35.0552 2.95159
rfingers 7.12502
rthumb -8.19808 -26.8694
lclavicle -1.13307e-014 -3.49861e-014
lhumerus 42.27 -22.9369 76.7186
lradius 101.643
lwrist -11.7236
lhand -60.2357 -5.38034
lfingers 7.12502
lthumb -32.3762 21.7494
rfemur -95.3343 -6.4602 36.1859
rtibia 134.808
rfoot 6.34856 2.17658
rtoes -5.16201
lfemur 28.0828 -7.37436 -11.738
ltibia 27.2572
lfoot -11.2426 -4.94171
ltoes -4.82333
55
root -2.3168 17.0637 2.49742 140.093 -11.9107 -166.444
lowerback 43.4247 -5.50972 4.93556
upperback 12.6963 -10.846 6.78192
thorax -5.13445 -8.21832 9.25011
lowerneck -8.68925 -3.78747 -6.98088
upperneck -5.33283 -3.93883 6.83327
head 0.114691 -1.632 3.32233
rclavicle 1.66979e-014 -9.06458e-014
rhumerus -52.5865 35.2662 -104.684
rradius 39.6462
rwrist -38.349
rhand -35.0189 3.19394
rfingers 7.12502
rthumb -8.16304 -26.6284
lclavicle 1.66979e-014 -9.06458e-014
lhumerus 42.661 -22.9952 76.6554
lradius 101.811
lwrist -11.7151
lhand -60.2656 -4.99798
lfingers 7.12502
lthumb -32.4046 22.126
rfemur -96.3049 -6.44621 36.5157
rtibia 134.864
rfoot 5.82722 2.03297
rtoes -4.66492
lfemur 28.3992 -7.30353 -11.5994
ltibia 27.0243
lfoot -11.1103 -4.93138
ltoes -4.93806
56
root -2.3287 17.0632 2.50312 139.892 -11.7507 -166.37
lowerback 43.8457 -5.42665 4.99349
upperback 12.6802 -10.7679 6.96292
thorax -5.24544 -8.22901 9.44064
lowerneck -8.82452 -3.79973 -7.05061
upperneck -5.39523 -3.93047 6.73971
head 0.116316 -1.62071 3.3023
rclavicle -1.66979e-014 -2.06736e-014
rhumerus -52.2167 35.4371 -104.307
rradius 39.5944
rwrist -38.3003
rhand -34.9808 3.38937
rfingers 7.12502
rthumb -8.1262 -26.4344
lclavicle -1.66979e-014 -2.06736e-014
lhumerus 42.9902 -23.0469 76.6179
lradius 101.952
lwrist -11.6998
lhand -60.2829 -4.63639
lfingers 7.12502
lthumb -32.4212 22.4842
rfemur -97.1274 -6.44265 36.8132
rtibia 134.906
rfoot 5.26419 1.92582
rtoes -4.5445
lfemur 28.6557 -7.26009 -11.5094
ltibia 26.933
lfoot -11.0717 -4.89537
ltoes -4.63097
57
root -2.34105 17.0557 2.50723 139.718 -11.5995 -166.303
lowerback 44.2038 -5.35096 5.05833
upperback 12.6801 -10.7016 7.13448
thorax -5.32147 -8.24538 9.612
lowerneck -8.95019 -3.81507 -7.12044
upperneck -5.48374 -3.92406 6.64386
head 0.107896 -1.60968 3.28172
rclavicle -2.72335e-014 6.36111e-014
rhumerus -51.8454 35.7037 -103.959
rradius 39.5811
rwrist -38.2842
rhand -34.9597 3.52361
rfingers 7.12502
rthumb -8.10586 -26.3009
lclavicle -2.72335e-014 6.36111e-014
lhumerus 43.3028 -23.0882 76.563
lradius 102.015
lwrist -11.7034
lhand -60.3246 -4.37599
lfingers 7.12502
lthumb -32.4608 22.7364
rfemur -97.7762 -6.47767 37.0822
rtibia 134.941
rfoot 4.60477 1.79719
rtoes -4.95836
lfemur 28.8057 -7.19542 -11.4187
ltibia 26.9991
lfoot -11.1029 -4.86817
ltoes -4.72847
58
root -2.3526 17.0434 2.51015 139.568 -11.418 -166.258
lowerback 44.5353 -5.26605 5.11544
upperback 12.6809 -10.6195 7.27036
thorax -5.39652 -8.24748 9.73935
lowerneck -9.07225 -3.82102 -7.10667
upperneck -5.5565 -3.91417 6.52722
head 0.101055 -1.59897 3.23808
rclavicle 4.53229e-014 -1.17681e-013
rhumerus -51.4477 35.8611 -103.626
rradius 39.5401
rwrist -38.167
rhand -34.9416 3.65723
rfingers 7.12502
rthumb -8.08845 -26.168
lclavicle 4.53229e-014 -1.17681e-013
lhumerus 43.542 -23.1255 76.4447
lradius 102.081
lwrist -11.6861
lhand -60.3433 -4.10488
lfingers 7.12502
lthumb -32.4786 23.0039
rfemur -98.2865 -6.47551 37.3432
rtibia 134.97
rfoot 3.99004 1.62117
rtoes -5.50395
lfemur 28.9143 -7.11481 -11.3281
ltibia 27.1566
lfoot -11.2068 -4.85469
ltoes -4.52079
59
root -2.36368 17.0339 2.51464 139.453 -11.2534 -166.192
lowerback 44.8203 -5.2188 5.20861
upperback 12.6717 -10.5587 7.38088
thorax -5.47413 -8.25098 9.82549
lowerneck -9.16397 -3.82005 -7.07357
upperneck -5.64636 -3.89779 6.42413
head 0.0829131 -1.58559 3.19625
rclavicle -1.92821e-014 -1.59028e-014
rhumerus -50.9847 35.8993 -103.236
rradius 39.486
rwrist -37.9291
rhand -34.8642 3.7313
rfingers 7.12502
rthumb -8.01374 -26.0968
lclavicle -1.92821e-014 -1.59028e-014
lhumerus 43.7364 -23.1754 76.2666
lradius 102.092
lwrist -11.6752
lhand -60.4162 -3.803
lfingers 7.12502
lthumb -32.548 23.2915
rfemur -98.672 -6.52816 37.5953
rtibia 134.981
rfoot 3.6111 1.53811
rtoes -4.93501
lfemur 28.9498 -7.03769 -11.2068
ltibia 27.3486
lfoot -11.3133 -4.86592
ltoes -4.30309
